<svg width="37" height="38" viewBox="0 0 37 38" fill="none" xmlns="http://www.w3.org/2000/svg">
<path d="M36.6664 19.0907C36.6664 23.9383 34.7361 28.5873 31.3003 32.015C27.8644 35.4428 23.2043 37.3684 18.3453 37.3684C13.4862 37.3684 8.82618 35.4428 5.3903 32.015C1.95443 28.5873 0.0241699 23.9383 0.0241699 19.0907C0.0241699 18.5114 0.0520694 17.9414 0.104834 17.3776C0.546343 12.6992 2.77703 8.37015 6.33371 5.28937C9.89039 2.20859 14.4998 0.612747 19.2048 0.833209C23.9099 1.05367 28.3491 3.0735 31.6007 6.4733C34.8522 9.87309 36.6664 14.3916 36.6664 19.0907Z" fill="#FED78A"/>
<path d="M23.8012 20.3051C23.3571 19.7226 22.7729 19.2612 22.1027 18.9637C21.2761 18.6161 20.4224 18.3364 19.5501 18.1273V13.152C20.8909 13.3537 22.1483 13.9256 23.1802 14.8032L24.1926 12.6501C23.6103 12.1327 22.9419 11.7206 22.2175 11.4327C21.4146 11.1083 20.5718 10.8926 19.7116 10.7914V8.26968H17.3672V10.8162C16.4619 10.9176 15.5886 11.2101 14.8053 11.6743C14.0978 12.0921 13.5022 12.6746 13.0694 13.372C12.6564 14.0525 12.4423 14.8348 12.4515 15.6303C12.4112 16.4925 12.6615 17.3432 13.1626 18.0467C13.6238 18.6558 14.2329 19.1377 14.9325 19.447C15.7724 19.8048 16.6408 20.0918 17.5286 20.3051V25.0728C15.9465 24.9537 14.4389 24.3537 13.2092 23.3534L12.1969 25.5096C12.8845 26.0767 13.6665 26.5192 14.5072 26.8169C15.4285 27.1458 16.3909 27.346 17.3672 27.4117V29.9117H19.7116V27.3653C21.0138 27.2233 22.235 26.6647 23.1926 25.7729C23.6143 25.3695 23.9475 24.883 24.1709 24.3444C24.3943 23.8058 24.5032 23.2268 24.4907 22.644C24.5296 21.8094 24.2868 20.9858 23.8012 20.3051ZM17.5287 17.6006C16.9576 17.4278 16.4266 17.1435 15.9666 16.7642C15.7844 16.6024 15.6403 16.4024 15.5448 16.1785C15.4492 15.9546 15.4045 15.7124 15.4139 15.4693C15.397 14.9175 15.6002 14.3816 15.979 13.9792C16.399 13.557 16.9409 13.2764 17.5287 13.1768V17.6006ZM21.0221 24.193C20.6259 24.5983 20.1101 24.8664 19.5501 24.9582V20.8565C20.0854 20.9998 20.586 21.2495 21.0221 21.5907C21.1874 21.7316 21.3187 21.9078 21.4063 22.1062C21.4939 22.3047 21.5356 22.5202 21.5282 22.737C21.5498 23.2686 21.369 23.7888 21.0221 24.193Z" fill="#92400E"/>
</svg>
