<svg width="45" height="44" viewBox="0 0 45 44" fill="none" xmlns="http://www.w3.org/2000/svg">
<path d="M22.3453 0.405273C16.6965 0.407453 11.2702 2.60237 7.21487 6.52547C3.15958 10.4486 0.793577 15.7919 0.617632 21.4246C0.611422 21.6446 0.608383 21.8677 0.608383 22.0907C0.608383 26.3797 1.88322 30.5723 4.2717 34.1385C6.66019 37.7046 10.055 40.4841 14.0269 42.1254C17.9988 43.7667 22.3694 44.1962 26.586 43.3595C30.8025 42.5227 34.6757 40.4574 37.7156 37.4246C40.7556 34.3919 42.8258 30.5279 43.6645 26.3213C44.5033 22.1148 44.0728 17.7545 42.4276 13.7921C40.7824 9.82956 37.9963 6.44275 34.4217 4.05993C30.8471 1.6771 26.6444 0.405273 22.3453 0.405273V0.405273ZM22.3453 43.1566C16.7468 43.1507 11.3793 40.9294 7.42057 36.9801C3.46184 33.0307 1.23526 27.6759 1.22943 22.0907C1.22943 21.8026 1.23564 21.5176 1.24808 21.2357C1.41623 17.1092 2.79653 13.123 5.21733 9.77289C7.63812 6.42274 10.9926 3.85639 14.8637 2.39296C18.7348 0.929534 22.9517 0.633583 26.99 1.54192C31.0283 2.45025 34.71 4.52279 37.5771 7.50183C40.4442 10.4809 42.3703 14.235 43.1159 18.2973C43.8614 22.3597 43.3936 26.5511 41.7706 30.3503C40.1475 34.1496 37.4409 37.389 33.9872 39.6659C30.5334 41.9428 26.485 43.1567 22.3453 43.1566V43.1566Z" fill="#111111"/>
<path d="M40.6664 22.0908C40.6664 26.9383 38.7362 31.5873 35.3003 35.0151C31.8644 38.4428 27.2043 40.3685 22.3453 40.3685C17.4862 40.3685 12.8262 38.4428 9.3903 35.0151C5.95443 31.5873 4.02417 26.9383 4.02417 22.0908C4.02417 21.5115 4.05207 20.9414 4.10483 20.3776C4.54634 15.6992 6.77703 11.3702 10.3337 8.28941C13.8904 5.20863 18.4998 3.61279 23.2048 3.83325C27.9099 4.05372 32.3491 6.07355 35.6007 9.47334C38.8522 12.8731 40.6664 17.3917 40.6664 22.0908Z" fill="#D8D8D8"/>
<path d="M27.8012 23.3051C27.3571 22.7226 26.7729 22.2612 26.1027 21.9637C25.2761 21.6161 24.4224 21.3364 23.5501 21.1272V16.152C24.8909 16.3536 26.1483 16.9256 27.1802 17.8032L28.1926 15.6501C27.6103 15.1326 26.9419 14.7206 26.2175 14.4326C25.4146 14.1083 24.5718 13.8926 23.7116 13.7914V11.2697H21.3672V13.8161C20.4619 13.9176 19.5886 14.2101 18.8053 14.6743C18.0978 15.0921 17.5022 15.6745 17.0694 16.3719C16.6564 17.0525 16.4423 17.8348 16.4515 18.6303C16.4112 19.4924 16.6615 20.3432 17.1626 21.0467C17.6238 21.6558 18.2329 22.1377 18.9325 22.4469C19.7724 22.8048 20.6408 23.0918 21.5286 23.3051V28.0728C19.9465 27.9537 18.4389 27.3536 17.2092 26.3534L16.1969 28.5096C16.8845 29.0767 17.6665 29.5192 18.5072 29.8169C19.4285 30.1458 20.3909 30.346 21.3672 30.4117V32.9117H23.7116V30.3652C25.0138 30.2233 26.235 29.6647 27.1926 28.7729C27.6143 28.3694 27.9475 27.883 28.1709 27.3444C28.3943 26.8058 28.5032 26.2268 28.4907 25.644C28.5296 24.8094 28.2868 23.9858 27.8012 23.3051V23.3051ZM21.5287 20.6006C20.9576 20.4278 20.4266 20.1435 19.9666 19.7641C19.7844 19.6024 19.6403 19.4024 19.5448 19.1785C19.4492 18.9546 19.4045 18.7124 19.4139 18.4692C19.397 17.9175 19.6002 17.3815 19.979 16.9791C20.399 16.5569 20.9409 16.2764 21.5287 16.1768V20.6006ZM25.0221 27.193C24.6259 27.5983 24.1101 27.8664 23.5501 27.9581V23.8565C24.0854 23.9998 24.586 24.2495 25.0221 24.5907C25.1874 24.7315 25.3187 24.9077 25.4063 25.1062C25.4939 25.3046 25.5356 25.5202 25.5282 25.7369C25.5498 26.2686 25.369 26.7888 25.0221 27.193V27.193Z" fill="#111111"/>
</svg>
