<svg width="230" height="185" viewBox="0 0 230 185" fill="none" xmlns="http://www.w3.org/2000/svg">
<path d="M131.027 163.665C129.436 161.443 127.284 159.818 124.577 159.209C122.217 158.679 119.79 158.769 117.391 158.788L87.0544 159.021C84.4564 159.041 81.9653 161.287 82.086 163.978C82.2058 166.646 84.2696 168.956 87.0544 168.934C95.9409 168.866 104.827 168.798 113.714 168.729C115.809 168.713 117.905 168.676 120 168.682C120.47 168.684 120.939 168.709 121.409 168.714C121.523 168.715 121.605 168.714 121.663 168.712C121.678 168.716 121.69 168.72 121.709 168.726C121.954 168.793 122.206 168.839 122.452 168.903C122.366 168.905 122.612 169.059 122.736 169.111C122.753 169.144 122.789 169.203 122.85 169.295C122.934 169.453 123.184 169.933 123.194 169.918C123.57 170.865 123.88 171.837 124.122 172.827C124.699 175.011 124.826 175.467 124.909 177.515C125.014 180.103 127.119 182.595 129.878 182.472C132.48 182.356 134.959 180.29 134.846 177.515C134.656 172.839 133.834 167.587 131.027 163.665Z" fill="#D8D8D8"/>
<path d="M88.8377 174.85C88.2679 171.406 87.709 167.959 87.1281 164.516C86.5388 161.023 85.335 157.825 82.6106 155.533C81.8827 154.92 81.1279 154.348 80.3699 153.778C80.1034 153.578 79.8373 153.377 79.5739 153.173C79.5581 153.16 79.5481 153.153 79.5345 153.142C79.5055 153.117 79.4708 153.088 79.4241 153.048C78.2886 152.09 77.1914 151.088 76.1463 150.024C75.2182 149.078 74.3306 148.093 73.4836 147.067C73.2719 146.811 73.063 146.552 72.8568 146.291C72.8213 146.246 72.6302 146 72.5044 145.839C72.3873 145.678 72.1734 145.388 72.1374 145.337C71.8965 144.997 71.6599 144.654 71.4275 144.308C69.8451 141.943 68.4748 139.443 67.3326 136.837C67.2194 136.579 67.1088 136.319 67.0009 136.057C66.9719 135.978 66.9344 135.875 66.8847 135.739C66.6546 135.107 66.4248 134.477 66.2144 133.838C65.7672 132.481 65.3828 131.103 65.0611 129.706C64.9021 129.016 64.7589 128.323 64.6316 127.626C64.5659 127.268 64.5045 126.908 64.4474 126.549C64.438 126.489 64.3821 126.101 64.3493 125.881C64.325 125.661 64.2798 125.27 64.2737 125.21C64.2374 124.847 64.2051 124.484 64.1769 124.121C64.1133 123.303 64.0704 122.484 64.048 121.663C64.0098 120.205 64.036 118.746 64.1265 117.288C64.1781 116.469 64.2515 115.652 64.3418 114.836C64.3473 114.786 64.3515 114.746 64.3555 114.71C64.3609 114.674 64.3673 114.633 64.3749 114.581C64.4418 114.13 64.5121 113.68 64.5908 113.231C64.8888 111.528 65.2764 109.841 65.752 108.178C65.9771 107.391 66.2217 106.611 66.4857 105.837C66.6033 105.494 66.7247 105.151 66.8499 104.81C66.8417 104.832 67.217 103.876 67.222 103.844C68.7109 100.334 71.1463 97.1349 71.1496 93.1481C71.1519 90.4488 68.8628 87.863 66.1812 87.9878C64.8442 88.038 63.579 88.604 62.6521 89.5667C61.7253 90.5293 61.2092 91.8133 61.2128 93.1481C61.2128 93.2087 61.2125 93.2604 61.2123 93.3106C61.1873 93.3946 61.1664 93.4648 61.1476 93.5268C60.8572 94.1563 60.5015 94.7544 60.1828 95.3683C59.31 97.0484 58.5651 98.7837 57.8575 100.544C56.699 103.412 55.8123 106.381 55.2089 109.413C53.8974 116.057 53.7956 122.882 54.9084 129.562C56.8347 141.276 63.1875 152.49 72.0194 160.027C72.7858 160.681 73.5709 161.313 74.3635 161.932C74.6914 162.189 75.0221 162.44 75.3545 162.69C75.5116 162.808 76.1623 163.32 75.8761 163.072C76.4917 163.596 76.7508 163.86 76.9089 164.246C76.9318 164.335 76.9631 164.456 77.0054 164.621C77.1168 165.057 77.2227 165.491 77.3106 165.932C78.0793 169.79 78.6137 173.712 79.2558 177.594C79.6972 180.262 82.989 181.998 85.3676 181.198C88.1363 180.268 89.3106 177.709 88.8377 174.85Z" fill="#D8D8D8"/>
<path d="M131.529 184.855C129.443 184.861 127.439 184.04 125.958 182.574C124.477 181.107 123.64 179.115 123.63 177.033V171.379C117.696 172.041 97.3766 171.888 91.5522 170.954V176.807C91.5365 178.887 90.6973 180.876 89.2175 182.342C87.7377 183.807 85.7373 184.629 83.6523 184.629C81.5673 184.629 79.5669 183.807 78.0871 182.342C76.6072 180.876 75.768 178.887 75.7524 176.807V165.316C67.8637 160.944 61.2873 154.551 56.702 146.797C52.1167 139.043 49.6885 130.208 49.6681 121.205C49.6681 105.768 56.6808 91.3679 68.908 81.6965C76.858 75.3868 86.5172 71.5922 96.6451 70.8001C98.0198 70.6925 99.4028 70.638 100.756 70.638C105.523 70.638 127.032 71.3727 132.429 72.9217L144.735 60.7401C144.916 60.5586 145.147 60.435 145.398 60.3849C145.65 60.3349 145.911 60.3608 146.148 60.4592C146.386 60.554 146.591 60.7184 146.734 60.9311C146.877 61.1438 146.952 61.3947 146.95 61.6509V63.5877L149.346 61.2203C149.527 61.0386 149.758 60.9147 150.009 60.8646C150.261 60.8145 150.521 60.8404 150.758 60.9389C150.997 61.0336 151.201 61.1981 151.345 61.4109C151.488 61.6236 151.564 61.8747 151.562 62.131V83.7746C157.736 89.328 162.443 96.3153 165.263 104.117C168.084 111.919 168.932 120.295 167.732 128.502C166.532 136.709 163.321 144.494 158.384 151.167C153.447 157.84 146.937 163.195 139.429 166.757V177.033C139.419 179.115 138.581 181.107 137.101 182.574C135.62 184.04 133.616 184.861 131.529 184.855ZM124.251 170.676V177.033C124.266 178.949 125.04 180.78 126.403 182.129C127.767 183.478 129.609 184.235 131.529 184.235C133.45 184.235 135.292 183.478 136.655 182.129C138.019 180.78 138.792 178.949 138.808 177.033V166.366L138.985 166.282C147.409 162.294 154.561 156.055 159.645 148.258C166.124 138.308 168.819 126.372 167.241 114.612C165.663 102.852 159.917 92.0434 151.044 84.1433L150.94 84.0509V62.131C150.943 61.9978 150.904 61.8672 150.829 61.7566C150.755 61.6461 150.648 61.561 150.524 61.5128C150.4 61.46 150.263 61.4458 150.131 61.4719C149.999 61.4981 149.878 61.5634 149.784 61.6594L146.329 65.0734V61.6509C146.331 61.5177 146.293 61.3871 146.218 61.2765C146.144 61.166 146.037 61.0809 145.912 61.0327C145.788 60.98 145.651 60.9659 145.519 60.9922C145.387 61.0186 145.266 61.0841 145.172 61.1803L132.603 73.6227L132.424 73.5668C127.407 72.0003 105.56 71.2576 100.756 71.2576C99.4189 71.2576 98.0522 71.3115 96.6939 71.4178C86.6891 72.2003 77.1472 75.9488 69.2939 82.1819C57.2161 91.7352 50.2891 105.959 50.2891 121.205C50.3098 130.129 52.7249 138.884 57.2838 146.561C61.8426 154.238 68.3787 160.558 76.2133 164.863L76.3735 164.951V176.807C76.3895 178.722 77.1634 180.554 78.5267 181.903C79.89 183.251 81.7323 184.008 83.6523 184.008C85.5723 184.008 87.4146 183.251 88.7779 181.903C90.1412 180.554 90.9151 178.722 90.9311 176.807V170.213L91.299 170.282C96.5332 171.264 118.573 171.419 123.9 170.722L124.251 170.676Z" fill="#D8D8D8"/>
<path d="M89.4312 36.9017L55.0433 47.2115C53.9496 47.5408 53.0316 48.2897 52.4909 49.2938C51.9503 50.2978 51.8313 51.4749 52.1601 52.5665C52.4889 53.658 53.2386 54.5747 54.2444 55.1152C55.2503 55.6556 56.43 55.7757 57.5245 55.4489L87.6176 46.4247L88.2481 46.2357C88.3757 42.9948 89.257 39.8279 90.8224 36.9853C90.6259 36.8971 90.4159 36.8426 90.2013 36.8242C89.942 36.7991 89.6803 36.8255 89.4312 36.9017Z" fill="#D8D8D8"/>
<path d="M56.9298 57.647C56.4733 57.6458 56.0287 57.5016 55.6589 57.2347C55.289 56.9678 55.0126 56.5917 54.8686 56.1596L52.7183 49.6861C52.6284 49.4158 52.5929 49.1305 52.6136 48.8464C52.6343 48.5624 52.711 48.2852 52.8391 48.0307C52.9672 47.7762 53.1443 47.5494 53.3603 47.3632C53.5764 47.177 53.827 47.0351 54.098 46.9455L82.0862 37.692C82.3572 37.6024 82.6432 37.5669 82.9279 37.5876C83.2125 37.6082 83.4904 37.6846 83.7455 37.8124C84.0006 37.9402 84.2279 38.1168 84.4146 38.3323C84.6013 38.5477 84.7435 38.7978 84.8334 39.0681L86.9837 45.5415C87.1626 46.0739 87.1267 46.6549 86.8837 47.1614C86.6407 47.6679 86.2095 48.0601 85.6816 48.255C85.6558 48.2647 85.6297 48.2738 85.6033 48.2824L57.6157 57.5356C57.3946 57.6092 57.163 57.6468 56.9298 57.647Z" fill="#D8D8D8"/>
<path d="M109.345 25.4053C103.696 25.4075 98.2702 27.6024 94.2149 31.5255C90.1596 35.4486 87.7936 40.7919 87.6176 46.4247C87.6114 46.6446 87.6084 46.8677 87.6084 47.0907C87.6084 51.3797 88.8832 55.5723 91.2717 59.1385C93.6602 62.7046 97.055 65.4841 101.027 67.1254C104.999 68.7668 109.369 69.1962 113.586 68.3595C117.803 67.5227 121.676 65.4574 124.716 62.4246C127.756 59.3919 129.826 55.5279 130.665 51.3213C131.503 47.1148 131.073 42.7546 129.428 38.7921C127.782 34.8296 124.996 31.4428 121.422 29.0599C117.847 26.6771 113.644 25.4053 109.345 25.4053ZM109.345 68.1566C103.747 68.1507 98.3793 65.9294 94.4206 61.9801C90.4618 58.0307 88.2353 52.6759 88.2294 47.0907C88.2294 46.8026 88.2356 46.5176 88.2481 46.2357C88.4162 42.1092 89.7965 38.123 92.2173 34.7729C94.6381 31.4227 97.9926 28.8564 101.864 27.393C105.735 25.9295 109.952 25.6336 113.99 26.5419C118.028 27.4503 121.71 29.5228 124.577 32.5018C127.444 35.4809 129.37 39.235 130.116 43.2973C130.861 47.3597 130.394 51.5511 128.771 55.3503C127.148 59.1496 124.441 62.389 120.987 64.6659C117.533 66.9428 113.485 68.1567 109.345 68.1566Z" fill="#D8D8D8"/>
<path d="M127.666 47.0907C127.666 51.9383 125.736 56.5873 122.3 60.015C118.864 63.4428 114.204 65.3684 109.345 65.3684C104.486 65.3684 99.8262 63.4428 96.3903 60.015C92.9544 56.5873 91.0242 51.9383 91.0242 47.0907C91.0242 46.5114 91.0521 45.9414 91.1048 45.3776C91.5463 40.6992 93.777 36.3702 97.3337 33.2894C100.89 30.2086 105.5 28.6127 110.205 28.8332C114.91 29.0537 119.349 31.0735 122.601 34.4733C125.852 37.8731 127.666 42.3916 127.666 47.0907Z" fill="#168FFF"/>
<path d="M114.801 48.3051C114.357 47.7226 113.773 47.2612 113.103 46.9637C112.276 46.6161 111.422 46.3364 110.55 46.1273V41.152C111.891 41.3537 113.148 41.9256 114.18 42.8032L115.193 40.6501C114.61 40.1327 113.942 39.7206 113.217 39.4327C112.415 39.1083 111.572 38.8926 110.712 38.7914V36.2697H108.367V38.8162C107.462 38.9176 106.589 39.2101 105.805 39.6743C105.098 40.0921 104.502 40.6746 104.069 41.372C103.656 42.0525 103.442 42.8348 103.452 43.6303C103.411 44.4925 103.662 45.3432 104.163 46.0467C104.624 46.6558 105.233 47.1377 105.933 47.447C106.772 47.8048 107.641 48.0918 108.529 48.3051V53.0728C106.946 52.9537 105.439 52.3537 104.209 51.3534L103.197 53.5096C103.885 54.0767 104.666 54.5192 105.507 54.8169C106.428 55.1458 107.391 55.346 108.367 55.4117V57.9117H110.712V55.3653C112.014 55.2233 113.235 54.6647 114.193 53.7729C114.614 53.3695 114.947 52.883 115.171 52.3444C115.394 51.8058 115.503 51.2268 115.491 50.644C115.53 49.8094 115.287 48.9858 114.801 48.3051ZM108.529 45.6006C107.958 45.4278 107.427 45.1435 106.967 44.7642C106.784 44.6024 106.64 44.4024 106.545 44.1785C106.449 43.9546 106.405 43.7124 106.414 43.4693C106.397 42.9175 106.6 42.3816 106.979 41.9792C107.399 41.557 107.941 41.2764 108.529 41.1768V45.6006ZM112.022 52.193C111.626 52.5983 111.11 52.8664 110.55 52.9582V48.8565C111.085 48.9998 111.586 49.2495 112.022 49.5907C112.187 49.7316 112.319 49.9078 112.406 50.1062C112.494 50.3047 112.536 50.5202 112.528 50.737C112.55 51.2686 112.369 51.7888 112.022 52.193Z" fill="#D8D8D8"/>
<path d="M57.9279 83.8829C57.4478 83.8821 56.9815 83.7233 56.6011 83.4312C56.2207 83.139 55.9476 82.7299 55.824 82.2671L54.6533 77.8464C54.5068 77.2907 54.5871 76.6998 54.8767 76.2031C55.1663 75.7065 55.6416 75.3448 56.1982 75.1972L93.1325 65.4606C93.6899 65.3155 94.2822 65.3965 94.7798 65.686C95.2774 65.9754 95.6398 66.4497 95.7879 67.005L96.7796 70.7503L96.5938 70.7647C87.1213 71.4995 78.058 74.9258 70.4761 80.6381L70.4223 80.6641L58.4793 83.8115C58.2993 83.8589 58.114 83.8829 57.9279 83.8829Z" fill="#D8D8D8"/>
<path d="M51.8108 105.719C47.4782 105.08 43.3346 103.517 39.6623 101.136C37.843 99.9578 36.1588 98.5836 34.6399 97.0385C33.1407 95.5129 31.7065 93.7791 30.9639 91.7475C30.2495 89.8678 30.2863 87.7862 31.0668 85.9329C31.8366 84.0909 33.3072 82.6287 35.156 81.8667C37.016 81.1267 39.2631 81.0476 41.0732 81.858C41.9358 82.2351 42.6822 82.8345 43.2359 83.5946C43.4932 83.945 43.6838 84.3397 43.798 84.7588C43.904 85.1387 43.9137 85.5389 43.8261 85.9234C43.7199 86.3073 43.5327 86.664 43.2771 86.9698C43.0214 87.2756 42.7031 87.5233 42.3436 87.6963C41.5525 88.1013 40.6952 88.3621 39.8122 88.4666C38.924 88.5874 37.6482 88.6973 36.9342 87.9861C36.7872 87.8454 36.6716 87.6753 36.5949 87.4871C36.5413 87.3429 36.5229 87.188 36.5414 87.0354C36.531 87.1027 36.5845 86.889 36.5814 86.8975C36.5702 86.9291 36.5212 87.0061 36.5908 86.8878C36.6125 86.8489 36.6367 86.8113 36.6631 86.7754C36.6395 86.8058 36.5877 86.8566 36.6803 86.7695C36.7568 86.686 36.8551 86.6254 36.9642 86.5946C37.0072 86.5821 37.0508 86.5722 37.0939 86.5604C37.2034 86.5306 36.9847 86.5621 37.0967 86.5585C37.14 86.5571 37.1838 86.5582 37.2269 86.5562C37.3368 86.5513 37.1184 86.5263 37.2238 86.5527C37.2647 86.563 37.3052 86.573 37.3455 86.5857C37.4331 86.6132 37.2835 86.5216 37.3428 86.5902C37.4124 86.6705 37.2698 86.512 37.3488 86.5898C37.3882 86.6283 37.4253 86.6691 37.4599 86.7119C37.597 86.847 37.7819 86.9227 37.9746 86.9227C38.1673 86.9227 38.3522 86.847 38.4893 86.7119C38.6218 86.5737 38.6957 86.3897 38.6957 86.1985C38.6957 86.0072 38.6218 85.8233 38.4893 85.685C37.7716 84.7973 36.3538 85.0167 35.6277 85.7669C34.7017 86.7237 35.0684 88.24 35.9691 89.0748C36.9888 90.0199 38.433 90.0856 39.7446 89.9271C40.8531 89.8212 41.9334 89.5166 42.9335 89.0281C43.9272 88.541 44.7044 87.7033 45.1147 86.6773C45.2998 86.1298 45.3664 85.5493 45.3098 84.9741C45.2533 84.399 45.0749 83.8424 44.7866 83.3412C43.6286 81.1692 41.2306 80.0557 38.8604 79.8628C37.6401 79.7674 36.4129 79.9144 35.25 80.2953C34.087 80.6762 33.0113 81.2834 32.0851 82.0817C30.2998 83.6851 29.2005 85.9116 29.0145 88.3008C28.8076 90.7779 29.771 93.1835 31.1755 95.1826C32.6459 97.2138 34.4006 99.0242 36.386 100.559C40.2674 103.65 44.8203 105.792 49.6803 106.813C50.2584 106.933 50.8395 107.035 51.4238 107.119C51.6097 107.164 51.8058 107.137 51.9722 107.043C52.1385 106.948 52.2626 106.795 52.3192 106.612C52.3691 106.427 52.3438 106.229 52.2486 106.062C52.1535 105.894 51.9962 105.771 51.8108 105.719L51.8108 105.719Z" fill="#D8D8D8"/>
<path d="M121.178 74.1585C114.83 74.0692 108.502 74.2299 102.195 74.6407C100.039 74.7811 98.173 75.5414 98.173 76.8192C98.173 77.8875 100.024 79.1391 102.195 78.9976C108.499 78.5869 114.827 78.4262 121.178 78.5155C126.356 78.5884 126.353 74.2314 121.178 74.1585Z" fill="#D8D8D8"/>
<path d="M111.796 78.2997C111.11 78.2997 94.9946 78.2741 94.9946 76.0534C94.9946 73.8328 111.11 73.8072 111.796 73.8072C112.482 73.8072 128.597 73.8328 128.597 76.0534C128.597 78.2741 112.482 78.2997 111.796 78.2997ZM95.6247 76.0534C96.0657 76.7267 101.989 77.6801 111.796 77.6801C121.602 77.6801 127.526 76.7267 127.967 76.0534C127.526 75.3803 121.602 74.4268 111.796 74.4268C101.989 74.4268 96.0657 75.3803 95.6247 76.0534V76.0534Z" fill="#D8D8D8"/>
<path d="M162.925 136.68C166.493 136.581 170.933 136.458 174.353 133.965C175.372 133.192 176.209 132.207 176.805 131.077C177.402 129.948 177.743 128.702 177.806 127.427C177.876 125.459 177.163 123.74 175.799 122.59C174.012 121.084 171.404 120.731 168.592 121.555L171.505 100.32L169.367 100.027L165.943 124.993L167.728 124.175C169.798 123.228 172.64 122.746 174.406 124.235C174.839 124.624 175.177 125.107 175.393 125.648C175.609 126.189 175.696 126.772 175.65 127.352C175.597 128.301 175.341 129.227 174.897 130.068C174.454 130.909 173.834 131.645 173.08 132.226C170.418 134.166 166.879 134.416 162.865 134.528L162.925 136.68Z" fill="#D8D8D8"/>
<path d="M157.014 102.151H145.39V104.304H157.014V102.151Z" fill="#D8D8D8"/>
<path d="M63.1877 93.7856C62.6703 93.784 62.1704 93.5986 61.7776 93.2627C61.3848 92.9268 61.1246 92.4623 61.0438 91.9525L60.3343 87.4352C60.2457 86.8671 60.3866 86.2871 60.7262 85.8225C61.0657 85.3579 61.5761 85.0466 62.1454 84.957L99.8843 79.0578C100.454 78.9695 101.035 79.11 101.501 79.4488C101.966 79.7875 102.278 80.2966 102.368 80.8645L103.078 85.3819C103.166 85.95 103.025 86.53 102.686 86.9946C102.346 87.4592 101.836 87.7705 101.267 87.8601L63.5278 93.7592C63.4153 93.7767 63.3016 93.7856 63.1877 93.7856Z" fill="#D8D8D8"/>
<path d="M47.5695 40.8475C56.316 40.8475 63.4064 33.7739 63.4064 25.0481C63.4064 16.3224 56.316 9.24875 47.5695 9.24875C38.823 9.24875 31.7326 16.3224 31.7326 25.0481C31.7326 33.7739 38.823 40.8475 47.5695 40.8475Z" fill="#1C1C1C"/>
<path d="M56.5361 29.1361C57.0422 28.9595 57.5046 28.6768 57.8921 28.3071C58.1485 28.0435 58.344 27.7271 58.4649 27.3802C58.5859 27.0333 58.6293 26.6641 58.5923 26.2987C58.5707 26.0382 58.4891 25.7863 58.3538 25.5625C58.2185 25.3387 58.0331 25.1492 57.8122 25.0087C57.2391 24.6571 56.4817 24.6703 55.7171 25.024L55.6288 18.8567L55.0079 18.8655L55.1116 26.1158L55.5843 25.8065C56.1325 25.4484 56.9201 25.1887 57.4868 25.5365C57.627 25.6285 57.7439 25.7516 57.8286 25.8961C57.9134 26.0406 57.9635 26.2027 57.9752 26.3697C58.0014 26.6419 57.9684 26.9166 57.8786 27.175C57.7887 27.4334 57.6442 27.6694 57.4547 27.8671C56.7815 28.5335 55.7851 28.7568 54.6478 28.961L54.7578 29.5707C55.3624 29.4791 55.9575 29.3337 56.5361 29.1361Z" fill="#D8D8D8"/>
<path d="M62.0238 18.4238L58.7166 18.9234L58.8096 19.536L62.1168 19.0363L62.0238 18.4238Z" fill="#D8D8D8"/>
<path d="M51.5848 20.0006L48.2776 20.5003L48.3706 21.1128L51.6778 20.6131L51.5848 20.0006Z" fill="#D8D8D8"/>
<path d="M58.0352 93.5094C57.4657 93.5082 56.91 93.334 56.4421 93.01C55.9742 92.686 55.6164 92.2275 55.4161 91.6956L44.497 62.5228C43.1624 58.945 43.3049 54.9851 44.8933 51.5119C46.4816 48.0388 49.3861 45.336 52.9695 43.9966L61.848 40.6892C62.1913 40.5604 62.5567 40.5007 62.9233 40.5134C63.2898 40.5261 63.6503 40.6109 63.9838 40.7631C64.3165 40.9115 64.6163 41.1244 64.8656 41.3896C65.1148 41.6548 65.3086 41.9669 65.4356 42.3077L85.6623 80.4071C85.7936 80.7507 85.8555 81.1167 85.8445 81.4843C85.8335 81.8518 85.7497 82.2135 85.598 82.5486C85.4463 82.8837 85.2296 83.1855 84.9605 83.4368C84.6914 83.688 84.3752 83.8837 84.03 84.0125L59.0119 93.3323C58.6996 93.4492 58.3688 93.5092 58.0352 93.5094Z" fill="#D8D8D8"/>
<path d="M59.1543 41.6926L79.2233 68.4665L65.6435 41.9736C65.5313 41.6645 65.3592 41.3804 65.137 41.1377C64.9148 40.8949 64.6468 40.6982 64.3484 40.5588C64.0499 40.4194 63.7269 40.34 63.3977 40.3251C63.0685 40.3103 62.7396 40.3603 62.4298 40.4723L59.1543 41.6926Z" fill="#D8D8D8"/>
<path d="M90.9311 62.0258L55.0977 59.7231C54.5329 59.6868 53.9808 59.5398 53.4729 59.2907C52.965 59.0415 52.5113 58.695 52.1376 58.2709C51.7639 57.8468 51.4777 57.3534 51.2951 56.8189C51.1126 56.2844 51.0374 55.7193 51.0737 55.1558C51.1101 54.5924 51.2574 54.0415 51.5072 53.5348C51.7569 53.0281 52.1043 52.5755 52.5294 52.2027C52.9545 51.8299 53.449 51.5443 53.9848 51.3622C54.5205 51.1801 55.087 51.1051 55.6518 51.1414L91.4852 53.4439C91.7497 53.4609 92.0083 53.5297 92.2462 53.6464C92.484 53.763 92.6965 53.9253 92.8715 54.1239C93.0465 54.3225 93.1806 54.5536 93.2661 54.8039C93.3516 55.0542 93.3868 55.3189 93.3697 55.5827L93.0752 60.1457C93.0407 60.6787 92.7955 61.1761 92.3934 61.5287C91.9914 61.8813 91.4653 62.0601 90.9311 62.0258Z" fill="#D8D8D8"/>
<path d="M81.3559 63.502C81.3086 63.502 81.2612 63.5005 81.2136 63.4974H81.2136L51.7892 61.6066C51.5043 61.5884 51.2259 61.5143 50.9697 61.3886C50.7135 61.263 50.4847 61.0882 50.2962 60.8743C50.1078 60.6605 49.9634 60.4116 49.8713 60.1421C49.7793 59.8725 49.7413 59.5875 49.7597 59.3033L50.2629 51.5095C50.2812 51.2253 50.3555 50.9475 50.4815 50.6919C50.6074 50.4364 50.7826 50.2081 50.9971 50.0201C51.2115 49.8321 51.4609 49.6881 51.7311 49.5963C52.0014 49.5044 52.2871 49.4666 52.5719 49.485L81.9963 51.3756C82.5713 51.4132 83.1079 51.6768 83.4884 52.1086C83.8688 52.5404 84.0621 53.1052 84.0257 53.6789L83.5226 61.4729C83.4949 61.8905 83.3469 62.2913 83.0965 62.6271C82.8461 62.9629 82.5039 63.2195 82.1109 63.366C81.8694 63.4561 81.6137 63.5022 81.3559 63.502Z" fill="#D8D8D8"/>
<path d="M47.388 14.5418C49.4714 12.7542 52.3324 14.3533 54.7216 14.0734C57.0074 13.8056 58.8124 11.76 59.2735 9.58687C59.8114 7.05153 58.4923 4.51149 56.5481 2.93075C54.4187 1.19945 51.5945 0.702441 48.9183 1.02274C45.851 1.38985 43.0459 2.81624 40.5288 4.54153C38.0992 6.15527 35.8649 8.04405 33.8706 10.1702C32.0847 12.1379 30.5716 14.4833 30.0884 17.1311C29.6493 19.5374 29.9846 22.204 31.4105 24.2425C32.1666 25.2873 33.1799 26.12 34.3525 26.6605C35.5752 27.2594 36.8794 27.6876 38.064 28.3648C39.855 29.3888 41.5958 31.512 41.0347 33.7214C40.9144 34.2041 40.6771 34.6498 40.3435 35.0195C39.9427 35.4633 39.2198 34.8768 39.6216 34.4318C40.3274 33.6501 40.2996 32.6077 39.9235 31.6745C39.4762 30.623 38.6842 29.7541 37.6773 29.2104C36.4373 28.5031 35.0684 28.0666 33.7975 27.4224C32.5811 26.8339 31.5253 25.961 30.7198 24.8778C29.1987 22.7691 28.7438 20.0247 29.0887 17.4859C29.462 14.7385 30.877 12.242 32.6507 10.1499C34.581 7.87306 36.9521 5.94581 39.3744 4.21444C41.9735 2.35667 44.845 0.786047 48.0226 0.217979C50.777 -0.274448 53.7626 0.0287209 56.1712 1.52621C58.4195 2.92402 60.1436 5.32852 60.3151 8.01532C60.3766 9.23781 60.1105 10.4546 59.5442 11.5404C58.9779 12.6263 58.1318 13.5419 57.0929 14.1932C56.027 14.8296 54.7877 15.116 53.5498 15.0121C52.2265 14.9276 50.9019 14.5233 49.5701 14.6356C48.9674 14.672 48.3931 14.9035 47.9342 15.2949C47.479 15.6855 46.9365 14.9292 47.388 14.5418V14.5418Z" fill="#D8D8D8"/>
</svg>
