<svg width="217" height="44" viewBox="0 0 217 44" fill="none" xmlns="http://www.w3.org/2000/svg">
<path d="M22.3453 0.405273C16.6965 0.407453 11.2702 2.60237 7.21487 6.52547C3.15958 10.4486 0.793577 15.7919 0.617632 21.4246C0.611422 21.6446 0.608383 21.8677 0.608383 22.0907C0.608383 26.3797 1.88322 30.5723 4.2717 34.1385C6.66019 37.7046 10.055 40.4841 14.0269 42.1254C17.9988 43.7667 22.3694 44.1962 26.586 43.3595C30.8025 42.5227 34.6757 40.4574 37.7156 37.4246C40.7556 34.3919 42.8258 30.5279 43.6645 26.3213C44.5033 22.1148 44.0728 17.7545 42.4276 13.7921C40.7824 9.82956 37.9963 6.44275 34.4217 4.05993C30.8471 1.6771 26.6444 0.405273 22.3453 0.405273ZM22.3453 43.1566C16.7468 43.1507 11.3793 40.9294 7.42057 36.9801C3.46184 33.0307 1.23526 27.6759 1.22943 22.0907C1.22943 21.8026 1.23564 21.5176 1.24808 21.2357C1.41623 17.1092 2.79653 13.123 5.21733 9.77289C7.63812 6.42274 10.9926 3.85639 14.8637 2.39296C18.7348 0.929534 22.9517 0.633583 26.99 1.54192C31.0283 2.45025 34.71 4.52279 37.5771 7.50183C40.4442 10.4809 42.3703 14.235 43.1159 18.2973C43.8614 22.3597 43.3936 26.5511 41.7706 30.3503C40.1475 34.1496 37.4409 37.389 33.9872 39.6659C30.5334 41.9428 26.485 43.1567 22.3453 43.1566Z" fill="#111111"/>
<path d="M40.6664 22.0908C40.6664 26.9383 38.7361 31.5873 35.3003 35.0151C31.8644 38.4428 27.2043 40.3685 22.3453 40.3685C17.4862 40.3685 12.8262 38.4428 9.3903 35.0151C5.95443 31.5873 4.02417 26.9383 4.02417 22.0908C4.02417 21.5114 4.05207 20.9414 4.10483 20.3776C4.54634 15.6992 6.77703 11.3702 10.3337 8.28941C13.8904 5.20863 18.4998 3.61279 23.2048 3.83325C27.9099 4.05372 32.3491 6.07355 35.6007 9.47334C38.8522 12.8731 40.6664 17.3917 40.6664 22.0908Z" fill="#D8D8D8"/>
<path d="M27.8012 23.3051C27.3571 22.7226 26.7729 22.2612 26.1027 21.9637C25.2761 21.6161 24.4224 21.3364 23.5501 21.1272V16.152C24.8909 16.3536 26.1483 16.9256 27.1802 17.8032L28.1926 15.6501C27.6103 15.1326 26.9419 14.7206 26.2175 14.4326C25.4146 14.1083 24.5718 13.8926 23.7116 13.7914V11.2697H21.3672V13.8161C20.4619 13.9176 19.5886 14.2101 18.8053 14.6743C18.0978 15.0921 17.5022 15.6745 17.0694 16.3719C16.6564 17.0525 16.4423 17.8348 16.4515 18.6303C16.4112 19.4924 16.6615 20.3432 17.1626 21.0467C17.6238 21.6558 18.2329 22.1377 18.9325 22.4469C19.7724 22.8048 20.6408 23.0918 21.5286 23.3051V28.0728C19.9465 27.9537 18.4389 27.3536 17.2092 26.3534L16.1969 28.5096C16.8845 29.0767 17.6665 29.5192 18.5072 29.8169C19.4285 30.1458 20.3909 30.346 21.3672 30.4117V32.9117H23.7116V30.3652C25.0138 30.2233 26.235 29.6646 27.1926 28.7729C27.6143 28.3694 27.9475 27.883 28.1709 27.3444C28.3943 26.8058 28.5032 26.2268 28.4907 25.644C28.5296 24.8094 28.2868 23.9858 27.8012 23.3051ZM21.5287 20.6006C20.9576 20.4278 20.4266 20.1435 19.9666 19.7641C19.7844 19.6024 19.6403 19.4024 19.5448 19.1785C19.4492 18.9546 19.4045 18.7124 19.4139 18.4692C19.397 17.9175 19.6002 17.3815 19.979 16.9791C20.399 16.5569 20.9409 16.2764 21.5287 16.1768V20.6006ZM25.0221 27.193C24.6259 27.5983 24.1101 27.8664 23.5501 27.9581V23.8565C24.0854 23.9998 24.586 24.2495 25.0221 24.5907C25.1874 24.7315 25.3187 24.9077 25.4063 25.1062C25.4939 25.3046 25.5356 25.5202 25.5282 25.7369C25.5498 26.2686 25.369 26.7888 25.0221 27.193Z" fill="#111111"/>
<path d="M59.4016 23.1168C59.4016 23.9872 59.504 24.7723 59.7088 25.472C59.9307 26.1717 60.2379 26.7776 60.6304 27.2896C61.04 27.7845 61.5349 28.1685 62.1152 28.4416C62.6955 28.7147 63.3611 28.8512 64.112 28.8512C64.8459 28.8512 65.5029 28.7147 66.0832 28.4416C66.6805 28.1685 67.1755 27.7845 67.568 27.2896C67.9776 26.7776 68.2848 26.1717 68.4896 25.472C68.7115 24.7723 68.8224 23.9872 68.8224 23.1168C68.8224 22.2464 68.7115 21.4613 68.4896 20.7616C68.2848 20.0448 67.9776 19.4389 67.568 18.944C67.1755 18.432 66.6805 18.0395 66.0832 17.7664C65.5029 17.4933 64.8459 17.3568 64.112 17.3568C63.3611 17.3568 62.6955 17.5019 62.1152 17.792C61.5349 18.0651 61.04 18.4576 60.6304 18.9696C60.2379 19.4645 59.9307 20.0704 59.7088 20.7872C59.504 21.4869 59.4016 22.2635 59.4016 23.1168ZM72.944 23.1168C72.944 24.6357 72.7136 25.9755 72.2528 27.136C71.8091 28.2795 71.1947 29.2437 70.4096 30.0288C69.6245 30.7968 68.6859 31.3771 67.5936 31.7696C66.5184 32.1621 65.3579 32.3584 64.112 32.3584C62.9003 32.3584 61.7568 32.1621 60.6816 31.7696C59.6064 31.3771 58.6677 30.7968 57.8656 30.0288C57.0635 29.2437 56.432 28.2795 55.9712 27.136C55.5104 25.9755 55.28 24.6357 55.28 23.1168C55.28 21.5979 55.5189 20.2667 55.9968 19.1232C56.4747 17.9627 57.1147 16.9899 57.9168 16.2048C58.736 15.4197 59.6747 14.8309 60.7328 14.4384C61.808 14.0459 62.9344 13.8496 64.112 13.8496C65.3237 13.8496 66.4672 14.0459 67.5424 14.4384C68.6176 14.8309 69.5563 15.4197 70.3584 16.2048C71.1605 16.9899 71.792 17.9627 72.2528 19.1232C72.7136 20.2667 72.944 21.5979 72.944 23.1168ZM87.5114 31.5392C86.8629 31.7269 86.0266 31.8976 85.0026 32.0512C83.9786 32.2219 82.9034 32.3072 81.777 32.3072C80.6335 32.3072 79.6778 32.1536 78.9098 31.8464C78.1589 31.5392 77.5615 31.1125 77.1178 30.5664C76.6741 30.0032 76.3583 29.3376 76.1706 28.5696C75.9829 27.8016 75.889 26.9568 75.889 26.0352V18.5344H79.7034V25.5744C79.7034 26.8032 79.8655 27.6907 80.1898 28.2368C80.5141 28.7829 81.1199 29.056 82.0074 29.056C82.2805 29.056 82.5706 29.0475 82.8778 29.0304C83.185 28.9963 83.4581 28.9621 83.697 28.928V18.5344H87.5114V31.5392ZM90.964 15.1808L94.7784 14.5664V18.5344H99.3608V21.7088H94.7784V26.4448C94.7784 27.2469 94.9149 27.8869 95.188 28.3648C95.4781 28.8427 96.0499 29.0816 96.9032 29.0816C97.3128 29.0816 97.7309 29.0475 98.1576 28.9792C98.6013 28.8939 99.0024 28.7829 99.3608 28.6464L99.8984 31.616C99.4376 31.8037 98.9256 31.9659 98.3624 32.1024C97.7992 32.2389 97.108 32.3072 96.2888 32.3072C95.2477 32.3072 94.3859 32.1707 93.7032 31.8976C93.0205 31.6075 92.4744 31.2149 92.0648 30.72C91.6552 30.208 91.3651 29.5936 91.1944 28.8768C91.0408 28.16 90.964 27.3664 90.964 26.496V15.1808ZM107.843 32.256C106.734 32.2389 105.829 32.1195 105.129 31.8976C104.447 31.6757 103.901 31.3685 103.491 30.976C103.098 30.5664 102.825 30.08 102.672 29.5168C102.535 28.9365 102.467 28.288 102.467 27.5712V12.7488L106.281 12.1344V26.8032C106.281 27.1445 106.307 27.4517 106.358 27.7248C106.409 27.9979 106.503 28.2283 106.64 28.416C106.793 28.6037 107.007 28.7573 107.28 28.8768C107.553 28.9963 107.92 29.0731 108.381 29.1072L107.843 32.256ZM116.088 29.3376C116.463 29.3376 116.821 29.3291 117.163 29.312C117.504 29.2949 117.777 29.2693 117.982 29.2352V26.3424C117.828 26.3083 117.598 26.2741 117.291 26.24C116.984 26.2059 116.702 26.1888 116.446 26.1888C116.088 26.1888 115.746 26.2144 115.422 26.2656C115.115 26.2997 114.842 26.3765 114.603 26.496C114.364 26.6155 114.176 26.7776 114.04 26.9824C113.903 27.1872 113.835 27.4432 113.835 27.7504C113.835 28.3477 114.031 28.7659 114.424 29.0048C114.833 29.2267 115.388 29.3376 116.088 29.3376ZM115.78 18.176C116.907 18.176 117.845 18.304 118.596 18.56C119.347 18.816 119.945 19.1829 120.388 19.6608C120.849 20.1387 121.173 20.7189 121.361 21.4016C121.549 22.0843 121.643 22.8437 121.643 23.68V31.616C121.097 31.7355 120.337 31.872 119.364 32.0256C118.392 32.1963 117.214 32.2816 115.832 32.2816C114.961 32.2816 114.168 32.2048 113.451 32.0512C112.751 31.8976 112.145 31.6501 111.633 31.3088C111.121 30.9504 110.729 30.4896 110.456 29.9264C110.183 29.3632 110.046 28.672 110.046 27.8528C110.046 27.0677 110.2 26.4021 110.507 25.856C110.831 25.3099 111.258 24.8747 111.787 24.5504C112.316 24.2261 112.922 23.9957 113.604 23.8592C114.287 23.7056 114.995 23.6288 115.729 23.6288C116.224 23.6288 116.659 23.6544 117.035 23.7056C117.427 23.7397 117.743 23.7909 117.982 23.8592V23.5008C117.982 22.8523 117.786 22.3317 117.393 21.9392C117.001 21.5467 116.318 21.3504 115.345 21.3504C114.697 21.3504 114.057 21.4016 113.425 21.504C112.794 21.5893 112.248 21.7173 111.787 21.888L111.3 18.816C111.522 18.7477 111.795 18.6795 112.12 18.6112C112.461 18.5259 112.828 18.4576 113.22 18.4064C113.613 18.3381 114.023 18.2869 114.449 18.2528C114.893 18.2016 115.337 18.176 115.78 18.176ZM136.722 18.5344C135.954 21.1285 135.152 23.5605 134.316 25.8304C133.48 28.1003 132.566 30.3019 131.577 32.4352C131.218 33.2032 130.86 33.8517 130.501 34.3808C130.143 34.9269 129.75 35.3707 129.324 35.712C128.897 36.0704 128.411 36.3264 127.865 36.48C127.336 36.6507 126.713 36.736 125.996 36.736C125.398 36.736 124.844 36.6763 124.332 36.5568C123.837 36.4544 123.427 36.3349 123.103 36.1984L123.769 33.152C124.161 33.2885 124.511 33.3824 124.818 33.4336C125.125 33.4848 125.45 33.5104 125.791 33.5104C126.474 33.5104 126.994 33.3227 127.353 32.9472C127.728 32.5888 128.044 32.0853 128.3 31.4368C127.429 29.7301 126.559 27.8187 125.689 25.7024C124.818 23.5691 123.999 21.1797 123.231 18.5344H127.276C127.446 19.2 127.643 19.9253 127.865 20.7104C128.104 21.4784 128.351 22.2635 128.607 23.0656C128.863 23.8507 129.119 24.6187 129.375 25.3696C129.648 26.1205 129.904 26.8032 130.143 27.4176C130.365 26.8032 130.595 26.1205 130.834 25.3696C131.073 24.6187 131.304 23.8507 131.525 23.0656C131.764 22.2635 131.986 21.4784 132.191 20.7104C132.413 19.9253 132.609 19.2 132.78 18.5344H136.722ZM142.633 29.2608C143.332 29.2608 143.827 29.1925 144.117 29.056C144.408 28.9195 144.553 28.6549 144.553 28.2624C144.553 27.9552 144.365 27.6907 143.989 27.4688C143.614 27.2299 143.042 26.9653 142.274 26.6752C141.677 26.4533 141.131 26.2229 140.636 25.984C140.158 25.7451 139.748 25.4635 139.407 25.1392C139.066 24.7979 138.801 24.3968 138.613 23.936C138.426 23.4752 138.332 22.9205 138.332 22.272C138.332 21.0091 138.801 20.0107 139.74 19.2768C140.678 18.5429 141.967 18.176 143.605 18.176C144.425 18.176 145.21 18.2528 145.961 18.4064C146.712 18.5429 147.309 18.6965 147.753 18.8672L147.087 21.8368C146.643 21.6832 146.157 21.5467 145.628 21.4272C145.116 21.3077 144.536 21.248 143.887 21.248C142.692 21.248 142.095 21.5808 142.095 22.2464C142.095 22.4 142.121 22.5365 142.172 22.656C142.223 22.7755 142.325 22.8949 142.479 23.0144C142.633 23.1168 142.837 23.2363 143.093 23.3728C143.366 23.4923 143.708 23.6288 144.117 23.7824C144.954 24.0896 145.645 24.3968 146.191 24.704C146.737 24.9941 147.164 25.3184 147.471 25.6768C147.795 26.0181 148.017 26.4021 148.137 26.8288C148.273 27.2555 148.341 27.7504 148.341 28.3136C148.341 29.6448 147.838 30.6517 146.831 31.3344C145.841 32.0171 144.433 32.3584 142.607 32.3584C141.412 32.3584 140.414 32.256 139.612 32.0512C138.827 31.8464 138.281 31.6757 137.973 31.5392L138.613 28.4416C139.262 28.6976 139.928 28.9024 140.61 29.056C141.293 29.1925 141.967 29.2608 142.633 29.2608ZM161.592 28.7488C161.779 28.7659 161.993 28.7829 162.232 28.8C162.488 28.8 162.786 28.8 163.128 28.8C165.124 28.8 166.601 28.2965 167.556 27.2896C168.529 26.2827 169.016 24.8917 169.016 23.1168C169.016 21.2565 168.555 19.8485 167.633 18.8928C166.712 17.9371 165.252 17.4592 163.256 17.4592C162.983 17.4592 162.701 17.4677 162.411 17.4848C162.121 17.4848 161.848 17.5019 161.592 17.536V28.7488ZM173.137 23.1168C173.137 24.6528 172.898 25.9925 172.42 27.136C171.943 28.2795 171.26 29.2267 170.372 29.9776C169.502 30.7285 168.435 31.2917 167.172 31.6672C165.909 32.0427 164.493 32.2304 162.923 32.2304C162.206 32.2304 161.37 32.1963 160.414 32.128C159.458 32.0768 158.52 31.9573 157.598 31.7696V14.4896C158.52 14.3189 159.475 14.208 160.465 14.1568C161.472 14.0885 162.334 14.0544 163.051 14.0544C164.57 14.0544 165.944 14.2251 167.172 14.5664C168.418 14.9077 169.485 15.4453 170.372 16.1792C171.26 16.9131 171.943 17.8517 172.42 18.9952C172.898 20.1387 173.137 21.5125 173.137 23.1168ZM181.363 29.3376C181.738 29.3376 182.096 29.3291 182.438 29.312C182.779 29.2949 183.052 29.2693 183.257 29.2352V26.3424C183.103 26.3083 182.873 26.2741 182.566 26.24C182.259 26.2059 181.977 26.1888 181.721 26.1888C181.363 26.1888 181.021 26.2144 180.697 26.2656C180.39 26.2997 180.117 26.3765 179.878 26.496C179.639 26.6155 179.451 26.7776 179.315 26.9824C179.178 27.1872 179.11 27.4432 179.11 27.7504C179.11 28.3477 179.306 28.7659 179.699 29.0048C180.108 29.2267 180.663 29.3376 181.363 29.3376ZM181.055 18.176C182.182 18.176 183.12 18.304 183.871 18.56C184.622 18.816 185.22 19.1829 185.663 19.6608C186.124 20.1387 186.448 20.7189 186.636 21.4016C186.824 22.0843 186.918 22.8437 186.918 23.68V31.616C186.372 31.7355 185.612 31.872 184.639 32.0256C183.667 32.1963 182.489 32.2816 181.107 32.2816C180.236 32.2816 179.443 32.2048 178.726 32.0512C178.026 31.8976 177.42 31.6501 176.908 31.3088C176.396 30.9504 176.004 30.4896 175.731 29.9264C175.458 29.3632 175.321 28.672 175.321 27.8528C175.321 27.0677 175.475 26.4021 175.782 25.856C176.106 25.3099 176.533 24.8747 177.062 24.5504C177.591 24.2261 178.197 23.9957 178.879 23.8592C179.562 23.7056 180.27 23.6288 181.004 23.6288C181.499 23.6288 181.934 23.6544 182.31 23.7056C182.702 23.7397 183.018 23.7909 183.257 23.8592V23.5008C183.257 22.8523 183.061 22.3317 182.668 21.9392C182.276 21.5467 181.593 21.3504 180.62 21.3504C179.972 21.3504 179.332 21.4016 178.7 21.504C178.069 21.5893 177.523 21.7173 177.062 21.888L176.575 18.816C176.797 18.7477 177.07 18.6795 177.395 18.6112C177.736 18.5259 178.103 18.4576 178.495 18.4064C178.888 18.3381 179.298 18.2869 179.724 18.2528C180.168 18.2016 180.612 18.176 181.055 18.176ZM197.765 24.8576C197.765 23.6288 197.603 22.7584 197.279 22.2464C196.972 21.7344 196.434 21.4784 195.666 21.4784C195.427 21.4784 195.18 21.4955 194.924 21.5296C194.668 21.5467 194.42 21.5723 194.181 21.6064V32H190.367V18.9952C190.691 18.9099 191.067 18.8245 191.493 18.7392C191.937 18.6368 192.398 18.5515 192.876 18.4832C193.371 18.3979 193.874 18.3381 194.386 18.304C194.898 18.2528 195.402 18.2272 195.897 18.2272C196.869 18.2272 197.654 18.3552 198.252 18.6112C198.866 18.8501 199.37 19.1403 199.762 19.4816C200.308 19.0891 200.931 18.7819 201.631 18.56C202.348 18.3381 203.005 18.2272 203.602 18.2272C204.677 18.2272 205.556 18.3808 206.239 18.688C206.939 18.9781 207.493 19.3963 207.903 19.9424C208.313 20.4885 208.594 21.1371 208.748 21.888C208.901 22.6389 208.978 23.4752 208.978 24.3968V32H205.164V24.8576C205.164 23.6288 205.002 22.7584 204.677 22.2464C204.37 21.7344 203.833 21.4784 203.065 21.4784C202.86 21.4784 202.57 21.5296 202.194 21.632C201.836 21.7344 201.537 21.8624 201.298 22.016C201.418 22.4085 201.494 22.8267 201.529 23.2704C201.563 23.6971 201.58 24.1579 201.58 24.6528V32H197.765V24.8576ZM216.18 29.9776C216.18 30.7456 215.932 31.3344 215.437 31.744C214.959 32.1365 214.413 32.3328 213.799 32.3328C213.184 32.3328 212.63 32.1365 212.135 31.744C211.657 31.3344 211.418 30.7456 211.418 29.9776C211.418 29.2096 211.657 28.6293 212.135 28.2368C212.63 27.8272 213.184 27.6224 213.799 27.6224C214.413 27.6224 214.959 27.8272 215.437 28.2368C215.932 28.6293 216.18 29.2096 216.18 29.9776Z" fill="#D8D8D8"/>
</svg>
