<svg width="45" height="44" viewBox="0 0 45 44" fill="none" xmlns="http://www.w3.org/2000/svg">
<path d="M22.3453 0.405285C16.6965 0.407464 11.2702 2.60239 7.21487 6.52548C3.15958 10.4486 0.793577 15.7919 0.617632 21.4247C0.611422 21.6446 0.608383 21.8677 0.608383 22.0907C0.608383 26.3797 1.88322 30.5723 4.2717 34.1385C6.66019 37.7046 10.055 40.4841 14.0269 42.1254C17.9988 43.7668 22.3694 44.1962 26.586 43.3595C30.8025 42.5227 34.6757 40.4574 37.7156 37.4246C40.7556 34.3919 42.8258 30.5279 43.6645 26.3213C44.5033 22.1148 44.0728 17.7546 42.4276 13.7921C40.7824 9.82957 37.9963 6.44277 34.4217 4.05994C30.8471 1.67712 26.6444 0.405285 22.3453 0.405285ZM22.3453 43.1566C16.7468 43.1507 11.3793 40.9294 7.42057 36.9801C3.46184 33.0307 1.23526 27.6759 1.22943 22.0907C1.22943 21.8026 1.23564 21.5176 1.24808 21.2357C1.41623 17.1092 2.79653 13.123 5.21733 9.7729C7.63812 6.42275 10.9926 3.85641 14.8637 2.39298C18.7348 0.929546 22.9517 0.633594 26.99 1.54193C31.0283 2.45026 34.71 4.5228 37.5771 7.50184C40.4442 10.4809 42.3703 14.235 43.1159 18.2973C43.8614 22.3597 43.3936 26.5511 41.7706 30.3503C40.1475 34.1496 37.4409 37.389 33.9872 39.6659C30.5334 41.9428 26.485 43.1567 22.3453 43.1566Z" fill="#1F2937"/>
</svg>
